HIERARCHY
ROOT Hips
{
	OFFSET 0.00000 0.00000 0.00000
	CHANNELS 6 Xposition Yposition Zposition Zrotation Yrotation Xrotation 
	JOINT LHipJoint
	{
		OFFSET 0 0 0
		CHANNELS 3 Zrotation Yrotation Xrotation
		JOINT LeftHip
		{
			OFFSET 1.54859 -1.61379 0.86856
			CHANNELS 3 Zrotation Yrotation Xrotation
			JOINT LeftKnee
			{
				OFFSET 2.25087 -6.18423 0.00000
				CHANNELS 3 Zrotation Yrotation Xrotation
				JOINT LeftAnkle
				{
					OFFSET 2.40328 -6.60297 0.00000
					CHANNELS 3 Zrotation Yrotation Xrotation
					JOINT LeftToe
					{
						OFFSET 0.17435 -0.47901 2.02453
						CHANNELS 3 Zrotation Yrotation Xrotation
						End Site
						{
							OFFSET 0.00000 -0.00000 1.04844
						}
					}
				}
			}
		}
	}
	JOINT RHipJoint
	{
		OFFSET 0 0 0
		CHANNELS 3 Zrotation Yrotation Xrotation
		JOINT RightHip
		{
			OFFSET -1.54669 -1.61379 0.86856
			CHANNELS 3 Zrotation Yrotation Xrotation
			JOINT RightKnee
			{
				OFFSET -2.28132 -6.26789 0.00000
				CHANNELS 3 Zrotation Yrotation Xrotation
				JOINT RightAnkle
				{
					OFFSET -2.51636 -6.91365 0.00000
					CHANNELS 3 Zrotation Yrotation Xrotation
					JOINT RightToe
					{
						OFFSET -0.15124 -0.41552 2.21090
						CHANNELS 3 Zrotation Yrotation Xrotation
						End Site
						{
							OFFSET -0.00000 -0.00000 1.13399
						}
					}
				}
			}
		}
	}
	JOINT lowerback
	{
		OFFSET 0 0 0
		CHANNELS 3 Zrotation Yrotation Xrotation
		JOINT Chest
		{
			OFFSET -0.04287 2.26161 -0.25690
			CHANNELS 3 Zrotation Yrotation Xrotation
			JOINT Chest2
			{
				OFFSET 0.02248 2.28395 -0.10140
				CHANNELS 3 Zrotation Yrotation Xrotation
				JOINT lowerneck
				{
					OFFSET 0 0 0
					CHANNELS 3 Zrotation Yrotation Xrotation
					JOINT Neck
					{
						OFFSET -0.11644 1.38496 0.11345
						CHANNELS 3 Zrotation Yrotation Xrotation
						JOINT Head
						{
							OFFSET 0.29383 1.36600 0.06642
							CHANNELS 3 Zrotation Yrotation Xrotation
							End Site
							{
								OFFSET 0.11075 1.41395 -0.00294
							}
						}
					}
				}
				JOINT LeftCollar
				{
					OFFSET 0 0 0
					CHANNELS 3 Zrotation Yrotation Xrotation
					JOINT LeftShoulder
					{
						OFFSET 3.51628 0.59542 -0.30346
CHANNELS 3 Zrotation Xrotation Yrotation
						JOINT LeftElbow
						{
OFFSET 0 -4.764050 0.000000
CHANNELS 3 Zrotation Xrotation Yrotation
							JOINT LeftWrist
							{
OFFSET 0 -3.137590 -0.000000
CHANNELS 3 Zrotation Xrotation Yrotation
								JOINT lhand
								{
									OFFSET 0 0 0
CHANNELS 3 Zrotation Xrotation Yrotation
									JOINT LFingers
									{
OFFSET 0 -0.732260 -0.000000
CHANNELS 3 Zrotation Xrotation Yrotation
										End Site
										{
OFFSET 0 -0.590370 -0.000000
										}
									}
								}
								JOINT LThumb
								{
OFFSET 0 0.000000 0.000000
CHANNELS 3 Zrotation Xrotation Yrotation
									End Site
									{
OFFSET 0 -0.599380 0.599380
									}
								}
							}
						}
					}
				}
				JOINT RightCollar
				{
					OFFSET 0 0 0
					CHANNELS 3 Zrotation Yrotation Xrotation
					JOINT RightShoulder
					{
						OFFSET -3.30990 0.84213 -0.36430
CHANNELS 3 Zrotation Xrotation Yrotation
						JOINT RightElbow
						{
OFFSET 0 -5.101610 -0.000000
CHANNELS 3 Zrotation Xrotation Yrotation
							JOINT RightWrist
							{
OFFSET 0 -3.232670 -0.000000
CHANNELS 3 Zrotation Xrotation Yrotation
								JOINT rhand
								{
									OFFSET 0 0 0
CHANNELS 3 Zrotation Xrotation Yrotation
									JOINT RFingers
									{
OFFSET 0 -0.702000 -0.000000
CHANNELS 3 Zrotation Xrotation Yrotation
										End Site
										{
OFFSET 0 -0.565970 -0.000000
										}
									}
								}
								JOINT RThumb
								{
OFFSET 0 0.000000 0.000000
CHANNELS 3 Zrotation Xrotation Yrotation
									End Site
									{
OFFSET 0 -0.574610 0.574610
									}
								}
							}
						}
					}
				}
			}
		}
	}
}
MOTION
Frames: 8
Frame Time: 0.008333333333333333
-1.563400 15.012000 5.549600 -176.389000 -9.725300 -176.459000 0.000000 0.000000 0.000000 -3.129000 5.308900 -36.077000 7.615800 15.829300 51.166700 0.082100 -14.000400 -10.777100 3.000900 -10.696500 -31.263000 0.000000 0.000000 0.000000 10.124000 -12.404300 -41.074100 -11.065500 -17.967000 62.994200 -0.987300 0.377900 -18.662300 -0.134900 2.367200 -6.521700 -5.768200 2.342200 25.107700 2.296200 0.122900 8.152000 5.860100 -0.697800 -4.968600 -14.729600 -7.381800 -5.921500 28.401700 -9.356000 -21.239200 11.862600 -6.640500 -2.680600 0.000000 -0.000000 0.000000 21.971100 18.330900 -51.115700 84.417900 -59.881900 55.167700 24.513500 -15.849900 -19.414000 0.000000 0.000000 0.000000 -7.125000 0.000000 0.000000 -3.839200 51.113900 0.579000 0.000000 -0.000000 0.000000 -21.046700 -6.925700 -1.154000 -72.173600 -58.764500 -44.626000 -48.154500 -63.487400 -38.947400 0.000000 0.000000 0.000000 7.125000 0.000000 -0.000000 -6.422200 -20.220600 -8.286500
-1.504996 14.869243 5.616037 -176.064601 -9.743085 -176.258139 0.000000 0.000000 0.000000 -2.235156 5.502697 -37.928436 8.152436 16.228330 53.106954 0.324791 -12.665379 -12.663015 5.657853 -14.087360 -43.590592 0.000000 0.000000 0.000000 9.497119 -12.152991 -42.071953 -11.351142 -18.102430 63.916285 -0.963991 -1.055450 -18.971579 -0.045647 1.376237 -3.784763 -5.753927 2.752469 26.600474 2.337584 0.428828 8.407404 5.838188 -0.599695 -5.460911 -16.003089 -7.430412 -5.791248 29.802209 -9.363939 -23.187534 12.811877 -6.897390 -3.060906 0.000000 0.000000 0.000000 23.281901 18.315925 -51.236373 88.195997 -59.982230 58.437832 24.303566 -16.234187 -19.036706 0.000000 0.000000 0.000000 -7.125000 0.000000 0.000000 -3.954024 50.674848 0.553123 0.000000 0.000000 0.000000 -22.180807 -6.844081 -3.920359 -75.436832 -59.179318 -47.422949 -49.079798 -66.293812 -39.061217 0.000000 0.000000 0.000000 7.125000 0.000000 0.000000 -6.823710 -20.813326 -8.851211
-1.443685 14.717634 5.678642 -175.919943 -9.743668 -175.963013 0.000000 0.000000 0.000000 -1.602732 5.847284 -39.994602 8.774916 16.657997 55.304398 0.365922 -12.409802 -12.971273 5.964816 -14.393700 -44.839561 0.000000 0.000000 0.000000 8.736971 -12.261970 -43.214498 -11.631590 -18.230043 64.815566 -0.899736 -3.010546 -19.271433 -0.061831 1.536782 -4.228589 -6.009987 3.156942 27.894951 2.336957 0.658448 8.689323 5.938666 -0.546291 -5.806744 -16.909142 -7.392362 -5.710655 30.951735 -9.293070 -24.926562 13.630162 -7.112377 -3.437829 0.000000 0.000000 0.000000 24.346055 18.240721 -50.790709 91.886150 -59.978660 61.633211 23.491104 -16.597648 -18.849076 0.000000 0.000000 0.000000 -7.125000 0.000000 0.000000 -4.710994 50.338354 0.619857 0.000000 0.000000 0.000000 -23.360519 -6.820388 -6.454865 -78.239470 -59.467228 -49.833530 -50.061162 -69.255610 -39.373795 0.000000 0.000000 0.000000 7.125000 0.000000 0.000000 -7.172679 -21.652456 -9.369062
-1.376442 14.562233 5.735926 -175.643282 -9.754461 -175.578513 0.000000 0.000000 0.000000 -0.863757 6.268029 -42.160539 9.386081 17.046997 57.411924 0.366010 -12.766689 -13.133101 6.263509 -14.676619 -46.026075 0.000000 0.000000 0.000000 8.004647 -12.266326 -44.283122 -11.849761 -18.326353 65.511706 -0.866265 -4.419141 -19.719157 -0.054902 1.039265 -2.862059 -6.218330 3.526204 28.943541 2.340294 0.869072 8.986258 6.011562 -0.505532 -6.006599 -16.581854 -7.218378 -5.574376 31.415273 -9.148628 -26.859521 14.013176 -7.383570 -4.062439 0.000000 0.000000 0.000000 25.302807 18.030731 -49.990859 95.311142 -59.885736 64.597543 22.724639 -16.905654 -18.750106 0.000000 0.000000 0.000000 -7.125000 0.000000 0.000000 -5.440134 50.106562 0.686341 0.000000 0.000000 0.000000 -24.335507 -6.891737 -8.948056 -80.496160 -59.652547 -51.779193 -51.310916 -72.345754 -39.328611 0.000000 0.000000 0.000000 7.125000 0.000000 0.000000 -7.785099 -22.284361 -10.226452
-1.305381 14.456310 5.786919 -175.321676 -9.761953 -175.169578 0.000000 0.000000 0.000000 -0.215666 6.851250 -44.229080 9.955900 17.383220 59.338488 0.369271 -13.225554 -13.375215 6.704925 -15.076343 -47.745746 0.000000 0.000000 0.000000 7.149101 -12.021649 -45.463525 -12.029748 -18.402907 66.082781 -0.865707 -5.067804 -20.123503 -0.007772 -0.479033 1.316465 -6.366625 3.955750 29.848166 2.324143 1.177441 9.297839 5.986554 -0.420343 -6.128502 -15.297911 -6.980692 -5.328911 31.379653 -9.000532 -28.978550 14.078555 -7.736287 -4.898378 0.000000 0.000000 0.000000 26.371863 17.504426 -49.241061 98.443694 -59.723226 67.305421 22.143441 -17.191148 -18.927124 0.000000 0.000000 0.000000 -7.125000 0.000000 0.000000 -6.058177 50.197683 0.779213 0.000000 0.000000 0.000000 -25.014143 -6.741735 -11.602418 -82.726083 -59.795960 -53.705038 -52.352841 -75.591753 -39.556695 0.000000 0.000000 0.000000 7.125000 0.000000 0.000000 -8.186499 -23.097468 -10.822242
-1.224927 14.318989 5.829146 -175.156005 -9.735624 -174.630977 0.000000 0.000000 0.000000 0.323375 7.642137 -46.543378 10.540590 17.701636 61.278897 0.240272 -14.245319 -12.605449 5.942913 -14.364264 -44.736264 0.000000 0.000000 0.000000 5.855721 -11.438618 -46.400799 -12.019139 -18.398680 66.049453 -0.802710 -5.948709 -20.105597 -0.074837 -1.714738 4.719074 -6.733798 4.462252 30.495308 2.295406 1.537793 9.638583 6.047367 -0.315817 -6.103632 -15.260628 -6.833240 -4.954042 31.846755 -8.893857 -30.970027 14.614281 -8.020296 -5.590636 0.000000 0.000000 0.000000 27.358416 16.674545 -48.308249 101.230515 -59.515445 69.709885 21.378449 -17.446868 -19.059318 0.000000 0.000000 0.000000 -7.125000 0.000000 0.000000 -6.843715 50.211308 0.882620 0.000000 0.000000 0.000000 -25.644718 -6.401573 -14.136762 -84.898250 -59.899909 -55.583262 -53.486537 -79.188650 -39.924657 0.000000 0.000000 0.000000 7.125000 0.000000 0.000000 -8.568731 -24.120053 -11.413209
-1.140821 14.172484 5.864112 -175.086621 -9.544706 -174.057775 0.000000 0.000000 0.000000 0.879102 8.453909 -48.742215 11.111898 17.989145 63.144217 0.153221 -14.841886 -12.062808 6.056112 -14.482531 -45.206546 0.000000 0.000000 0.000000 4.406237 -10.864848 -47.193691 -11.959602 -18.373475 65.860784 -0.715223 -6.752345 -19.829377 -0.129892 -2.321210 6.394189 -7.195574 5.095133 31.306027 2.374831 1.980038 9.654286 5.774385 -0.193527 -5.984689 -15.779659 -6.995185 -4.633686 33.014074 -9.160864 -32.766970 15.500478 -8.489359 -6.004554 0.000000 0.000000 0.000000 28.518659 15.539017 -47.236951 103.520483 -59.297544 71.681438 20.820797 -17.617027 -18.972858 0.000000 0.000000 0.000000 -7.125000 0.000000 0.000000 -7.363043 50.030880 0.917532 0.000000 0.000000 0.000000 -25.784211 -5.879194 -16.597701 -86.760773 -59.960168 -57.195092 -54.842626 -82.841208 -40.084707 0.000000 0.000000 0.000000 7.125000 0.000000 0.000000 -9.135757 -25.082680 -12.255491
-1.052069 14.045837 5.892872 -175.000761 -9.280241 -173.503180 0.000000 0.000000 0.000000 1.495955 9.182586 -50.664333 11.663414 18.243692 64.916803 0.080162 -15.568837 -11.774735 6.058614 -14.484860 -45.216434 0.000000 0.000000 0.000000 3.124528 -10.490391 -47.925405 -11.862407 -18.331792 65.551923 -0.601055 -7.661473 -19.396416 -0.071227 -1.701446 4.681675 -7.526722 5.754952 31.798499 1.983073 2.515345 9.958214 5.337689 0.000195 -5.902841 -14.123004 -6.794151 -4.472441 33.026200 -9.039763 -34.464872 15.548311 -8.890786 -6.774789 0.000000 0.000000 0.000000 30.068953 13.917419 -46.055491 105.151153 -59.113942 73.082205 20.585272 -17.837417 -19.221102 0.000000 0.000000 0.000000 -7.125000 0.000000 0.000000 -7.666286 50.250682 0.997723 0.000000 0.000000 0.000000 -24.879562 -5.205569 -18.997849 -88.067801 -59.985555 -58.326756 -56.061092 -85.736670 -40.240844 0.000000 0.000000 0.000000 7.125000 0.000000 0.000000 -9.635957 -25.982897 -13.008784
